<svg id="Layer_1" data-name="Layer 1" xmlns="http://www.w3.org/2000/svg" viewBox="0 0 1249.44 331.48"><defs><style>.cls-1{fill:#003030;}.cls-2{fill:#00e3e0;}.cls-3{fill:#13c8ca;}.cls-4{fill:#003233;}.cls-5{fill:#008484;}</style></defs><title>Ihd-logo-alt-svg</title><path class="cls-1" d="M374.66,140.49h17.1V31.38h-17.1V20.6h47.21V31.38h-17.1V140.49h17.1v10.78H374.66V140.49Z"/><path class="cls-1" d="M431.82,140.86h15.8V72.27c0-2.79-1.49-4.09-4.09-4.09H430.89V57.77h17.84c7.81,0,11.34,3.35,11.34,10.41v5.39a30.66,30.66,0,0,1-.74,6.69h0.37c2.6-7.06,14.68-24.72,38.11-24.72,23,0,31,13.2,31,36.25v49.07h15.8v10.41H516.21V95.14c0-14.68-2.42-27.7-20.45-27.7-20.63,0-35.5,18.22-35.5,38.85v34.57h15.8v10.41H431.82V140.86Z"/><path class="cls-1" d="M550.43,122.27H562V129c0,9.48,13.57,13.57,24.35,13.57,11.9,0,21.93-5.2,21.93-14.69,0-10.78-11.9-14.5-25.28-19.52-14.13-5.2-29-11.52-29-27.88,0-17.1,16.73-24.91,32.34-24.91,12.64,0,31,5.39,31,18.22V84.54H605.82V77.66c0-6.88-9.29-11.15-19.14-11.15C576.27,66.51,567,71,567,80.08c0,10.22,11.34,14.5,23.61,19,14.5,5.2,30.48,11.34,30.48,28.07,0,16.17-14.5,26.4-35.32,26.4-17.29,0-35.32-7.81-35.32-22.12v-9.11Z"/><path class="cls-1" d="M641.49,68.18H624.76V57.77h29.37v56.32c0,14.68,2.23,27.7,20.45,27.7,21,0,34.39-19.33,34.39-39.59v-34H692.23V57.77H721.6V137c0,2.79,1.49,4.09,4.09,4.09h10.6v10.22h-15.8c-7.81,0-11.15-3.35-11.15-10.41v-4.65c0-3.72.19-6.69,0.19-6.69h-0.37c-2.42,7.06-13.94,24-37,24-21.56,0-30.67-11.9-30.67-36.25V68.18Z"/><path class="cls-1" d="M744.46,140.86H759V72.27c0-2.79-1.49-4.09-4.09-4.09H742.23V57.77h17.66c7.81,0,11.34,3.16,11.34,10.59v6.32a67.5,67.5,0,0,1-.37,7.06h0.37c4.65-14.13,15.06-24.91,29.55-24.91a28.52,28.52,0,0,1,5.2.56V69.86a36.37,36.37,0,0,0-4.83-.37c-21,0-29.55,23.61-29.55,42.19v29.18h14.5v10.41H744.46V140.86Z"/><path class="cls-1" d="M812.64,140.86h15.8V68.18H811.71V57.77h29.37v83.09h15.8v10.41H812.64V140.86ZM827.7,20.6H842V36.4H827.7V20.6Z"/><path class="cls-1" d="M864.11,140.86h15.8V72.27c0-2.79-1.49-4.09-4.09-4.09H863.18V57.77H881c7.81,0,11.34,3.35,11.34,10.41v5.39a30.63,30.63,0,0,1-.74,6.69H892c2.6-7.06,14.68-24.72,38.11-24.72,23,0,31,13.2,31,36.25v49.07h15.8v10.41H948.5V95.14c0-14.68-2.42-27.7-20.45-27.7-20.63,0-35.5,18.22-35.5,38.85v34.57h15.8v10.41H864.11V140.86Z"/><path class="cls-1" d="M1017.09,179.15c18.22,0,32.71-8.55,32.71-29.56V140.3a43.31,43.31,0,0,1,.56-6.69H1050c-5.58,10.41-15.24,17.1-29.74,17.1-25.09,0-41.64-19.89-41.64-48S994,55.54,1019.13,55.54c13.2,0,26.4,5,31.41,16.54h0.37a16.67,16.67,0,0,1-.37-4.09c0-6.88,2.79-10.22,10.78-10.22h16.73V68.18h-11.53c-2.6,0-4.09,1.3-4.09,3.9v77c0,29.74-21.93,41.26-45,41.26A68.34,68.34,0,0,1,987,182.87l4.83-10.22S1003.34,179.15,1017.09,179.15Zm32.9-76.4c0-27.32-13-35.87-29.55-35.87-18.22,0-28.81,13.38-28.81,35.69,0,22.49,12.08,36.8,30.48,36.8C1037,139.37,1050,130.27,1050,102.76Z"/><path class="cls-2" d="M374.66,298.7h17.1V189.59h-17.1V178.8h47.21v10.78h-17.1v48.88h75.65V189.59h-17.1V178.8h47.21v10.78h-17.1V298.7h17.1v10.78H463.33V298.7h17.1V249.62H404.78V298.7h17.1v10.78H374.66V298.7Z"/><path class="cls-2" d="M562.38,213.75c25.84,0,39.22,19.89,39.22,43.12a52.72,52.72,0,0,1-.56,5.95H529.29c0.56,24,16.91,37.55,36.25,37.55,17.1,0,28.44-11.15,28.44-11.15l5.76,9.48a53,53,0,0,1-34.57,13c-27.88,0-48.89-20.08-48.89-48.89C516.28,232.15,537.1,213.75,562.38,213.75Zm26,39.78c-0.74-19.7-12.64-29.18-26.39-29.18-15.61,0-29.18,10.22-32.16,29.18H588.4Z"/><path class="cls-2" d="M663.66,252.23h6.13v-3.9c0-17.47-9.48-23.61-22.49-23.61a47.24,47.24,0,0,0-27.14,9.11l-5.95-9.48s12.64-10.6,33.83-10.6c22.68,0,34.39,12.08,34.39,35.13V295c0,2.79,1.49,4.09,4.09,4.09h10.22v10.41H681.51c-8,0-11.15-3.53-11.15-10.22v-1.67a40.81,40.81,0,0,1,.56-7.25h-0.37s-8,21.38-32,21.38c-15.24,0-31.23-8.74-31.23-27.88C607.34,253.53,647.86,252.23,663.66,252.23ZM640.43,301.3c18.77,0,29.37-18.77,29.37-35.13v-4.46h-5.39c-7.62,0-44.05-.74-44.05,20.82C620.35,292.19,627.42,301.3,640.43,301.3Z"/><path class="cls-2" d="M706.71,189.21H690.17V178.8h29.18V285.13c0,7.62,2,13.94,10.6,13.94a29.46,29.46,0,0,0,5.2-.37v10.78a52.9,52.9,0,0,1-7.25.56c-12.27,0-21.19-6.13-21.19-24V189.21Z"/><path class="cls-2" d="M747.9,226.39H731.17V216h16.91V190.14h12.45V216h23.61v10.41H760.54v48c0,21.93,13.94,24.91,21.19,24.91a21.68,21.68,0,0,0,4.28-.37v11a36.2,36.2,0,0,1-5.39.37c-10.78,0-32.71-3.53-32.71-34.76V226.39Z"/><path class="cls-2" d="M791.56,299.07h15.8V189.21H790.63V178.8H820v51.3a39,39,0,0,1-.74,7.62h0.37c3.72-8.74,16.36-24,37.55-24,23,0,31.23,13.2,31.23,36.25v49.07h16v10.41H875.77V253.34c0-14.68-2.23-27.7-20.26-27.7-20.08,0-35.5,16.73-35.5,39v34.39h15.8v10.41H791.56V299.07Z"/><path class="cls-2" d="M954,213.75c11.71,0,34.57,4.83,34.57,20.26v10.22H976.87v-6.88c0-8.37-14.13-12.27-22.68-12.27-20.45,0-36.06,14.87-36.06,37.55,0,23.24,16.54,37.73,36.62,37.73,18.22,0,29-11.52,30.67-12.83l5.39,9.67a53,53,0,0,1-36.43,14.5c-26.77,0-49.26-19-49.26-48.7C905.12,233.82,927.05,213.75,954,213.75Z"/><path class="cls-2" d="M1054,252.23h6.13v-3.9c0-17.47-9.48-23.61-22.49-23.61a47.24,47.24,0,0,0-27.14,9.11l-5.95-9.48s12.64-10.6,33.83-10.6c22.68,0,34.39,12.08,34.39,35.13V295c0,2.79,1.49,4.09,4.09,4.09h10.22v10.41h-15.24c-8,0-11.15-3.53-11.15-10.22v-1.67a40.69,40.69,0,0,1,.56-7.25h-0.37s-8,21.38-32,21.38c-15.24,0-31.23-8.74-31.23-27.88C997.65,253.53,1038.17,252.23,1054,252.23Zm-23.24,49.07c18.77,0,29.37-18.77,29.37-35.13v-4.46h-5.39c-7.62,0-44.05-.74-44.05,20.82C1010.66,292.19,1017.72,301.3,1030.73,301.3Z"/><path class="cls-2" d="M1094.54,299.07H1109V230.48c0-2.79-1.49-4.09-4.09-4.09h-12.64V216H1110c7.81,0,11.34,3.16,11.34,10.59v6.32a67.35,67.35,0,0,1-.37,7.06h0.37c4.65-14.13,15.06-24.91,29.55-24.91a28.53,28.53,0,0,1,5.2.56v12.45a36.38,36.38,0,0,0-4.83-.37c-21,0-29.56,23.61-29.56,42.19v29.18h14.5v10.41h-41.64V299.07Z"/><path class="cls-2" d="M1202.57,213.75c25.84,0,39.22,19.89,39.22,43.12a52.65,52.65,0,0,1-.56,5.95h-71.75c0.56,24,16.91,37.55,36.25,37.55,17.1,0,28.44-11.15,28.44-11.15l5.76,9.48a53,53,0,0,1-34.57,13c-27.88,0-48.89-20.08-48.89-48.89C1156.48,232.15,1177.29,213.75,1202.57,213.75Zm26,39.78c-0.74-19.7-12.64-29.18-26.39-29.18-15.61,0-29.18,10.22-32.16,29.18h58.55Z"/><polygon class="cls-3" points="203.7 202.69 227.71 226.7 233.75 220 205.32 196.98 201.85 200.84 203.7 202.69 203.7 202.69"/><polygon class="cls-3" points="179.65 117.63 186.36 92.56 178.6 90.92 174.54 116.58 179.65 117.63 179.65 117.63"/><polygon class="cls-4" points="215.93 173.53 228.67 175.55 229.35 169.02 216.5 168.35 215.93 173.53 215.93 173.53"/><polygon class="cls-3" points="158.41 6.64 158.82 14.46 174.69 14.46 175.09 6.64 158.41 6.64 158.41 6.64"/><polygon class="cls-4" points="191.28 10.94 182.69 65.13 193.12 67.33 208 11.8 191.68 8.36 191.28 10.94 191.28 10.94"/><polygon class="cls-3" points="222.94 19.39 220.13 26.71 234.37 33.05 239.11 23.74 223.87 16.95 222.94 19.39 222.94 19.39"/><polygon class="cls-4" points="128.21 21.9 143.46 18.68 141.82 8.36 125.51 11.8 128.21 21.9 128.21 21.9"/><polygon class="cls-3" points="100.33 35.37 106.26 47.02 119 41.35 109.64 16.95 94.4 23.74 100.33 35.37 100.33 35.37"/><polygon class="cls-4" points="252.13 34.28 243.59 47.43 255.53 56.11 267.04 41.9 253.55 32.09 252.13 34.28 252.13 34.28"/><polygon class="cls-4" points="85.65 40.85 79.95 32.08 66.47 41.9 73.04 50.02 85.65 40.85 85.65 40.85"/><polygon class="cls-5" points="224.88 51.67 230.81 40.03 217.32 34.02 210.76 51.1 222.5 56.33 224.88 51.67 224.88 51.67"/><polygon class="cls-5" points="172.63 53.58 174.27 22.29 159.23 22.29 160.87 53.58 172.63 53.58 172.63 53.58"/><polygon class="cls-5" points="79.62 58.14 86.19 66.26 97.03 58.38 89.92 47.43 77.97 56.11 79.62 58.14 79.62 58.14"/><polygon class="cls-3" points="277.59 54.91 273.89 58.6 284.51 70.38 290.59 65.46 279.44 53.06 277.59 54.91 277.59 54.91"/><polygon class="cls-5" points="124.62 55.98 121.81 48.66 109.81 54 113.37 60.98 124.62 55.98 124.62 55.98"/><polygon class="cls-5" points="149.59 57.38 144.69 26.42 130.24 29.47 148.5 97.61 155.72 96.08 149.59 57.38 149.59 57.38"/><polygon class="cls-5" points="235.05 60.57 222.25 80.29 230.87 86.56 250.6 62.2 239.32 54 235.05 60.57 235.05 60.57"/><polygon class="cls-4" points="206.08 63.3 184.62 119.22 189.39 121.32 218.94 63.31 207.96 58.41 206.08 63.3 206.08 63.3"/><polygon class="cls-4" points="172.08 64.02 172.22 61.41 161.29 61.41 164.15 116.12 169.35 116.08 172.08 64.02 172.08 64.02"/><polygon class="cls-5" points="268.35 64.14 249.88 82.61 258.11 91.76 278.42 75.32 268.35 64.14 268.35 64.14"/><polygon class="cls-3" points="91.13 72.36 135.52 127.17 139.72 124.12 101.3 64.96 91.13 72.36 91.13 72.36"/><polygon class="cls-3" points="65.8 74.84 70.7 69.69 70.7 69.68 68.85 67.84 68.85 67.83 63.31 62.3 63.31 62.3 61.46 60.45 61.46 60.45 59.61 58.6 59.61 58.6 54.07 53.06 42.91 65.46 61.18 80.25 65.8 74.84 65.8 74.84"/><polygon class="cls-5" points="189.74 79.94 191.09 74.89 181.47 72.86 179.83 83.18 188.39 84.99 189.74 79.94 189.74 79.94"/><polygon class="cls-4" points="298.22 80.37 274.12 96.02 280.82 107.62 308.76 93.39 300.41 78.94 298.22 80.37 298.22 80.37"/><polygon class="cls-5" points="67.27 85.19 81.48 96.69 89.17 88.16 76.24 75.23 67.27 85.19 67.27 85.19"/><polygon class="cls-3" points="216.55 89.06 193.91 123.92 198.15 126.97 225.94 92.65 217.98 86.86 216.55 89.06 216.55 89.06"/><polygon class="cls-4" points="249.99 98.33 252.02 96.69 244.34 88.16 202.04 130.46 205.53 134.34 249.99 98.33 249.99 98.33"/><polygon class="cls-4" points="87.58 101.62 128.18 134.5 131.65 130.64 127.96 126.95 127.96 126.95 118.73 117.72 118.73 117.71 116.88 115.87 116.88 115.86 109.49 108.48 109.49 108.48 107.64 106.64 107.64 106.63 105.8 104.79 105.8 104.78 98.41 97.4 98.41 97.39 96.56 95.55 96.56 95.55 94.71 93.7 87.58 101.62 87.58 101.62"/><polygon class="cls-4" points="141.47 99.89 127.42 63.3 116.93 67.97 144.22 121.51 148.96 119.4 141.47 99.89 141.47 99.89"/><polygon class="cls-4" points="57.34 109.99 71.31 117.11 76.92 107.41 33.09 78.94 24.75 93.39 57.34 109.99 57.34 109.99"/><polygon class="cls-3" points="313.11 109.56 296.03 116.12 300.5 129.9 320.69 124.49 315.54 108.63 313.11 109.56 313.11 109.56"/><polygon class="cls-5" points="266.86 114.74 273.84 111.18 267.54 100.29 256.58 107.41 262.2 117.11 266.86 114.74 266.86 114.74"/><polygon class="cls-3" points="25.28 111.44 17.96 108.63 12.82 124.49 20.39 126.52 25.28 111.44 25.28 111.44"/><polygon class="cls-3" points="158.17 111.56 156.94 103.83 150.53 105.18 153.9 117.8 158.98 116.7 158.17 111.56 158.17 111.56"/><polygon class="cls-5" points="78.29 120.67 87.6 125.41 92.26 117.37 83.49 111.67 78.29 120.67 78.29 120.67"/><polygon class="cls-5" points="44.79 118.92 32.59 114.25 27.96 128.55 40.58 131.93 44.79 118.92 44.79 118.92"/><polygon class="cls-5" points="288.71 118.92 244.81 135.78 247.5 144.1 292.93 131.93 288.71 118.92 288.71 118.92"/><polygon class="cls-3" points="96.91 130.16 122.52 143.2 125.13 138.71 98.83 121.63 94.59 128.97 96.91 130.16 96.91 130.16"/><polygon class="cls-3" points="222.62 137.27 255.22 120.67 250.02 111.67 208.61 138.56 211.23 143.08 222.62 137.27 222.62 137.27"/><polygon class="cls-4" points="78.43 142.07 118.81 152.9 120.41 147.95 52.11 121.73 48.15 133.96 78.43 142.07 78.43 142.07"/><polygon class="cls-4" points="230.17 141.4 213.35 147.86 214.95 152.83 239.94 146.13 237.49 138.59 230.17 141.4 230.17 141.4"/><polygon class="cls-4" points="321.56 141.22 316.39 142.04 318.03 157.81 325.86 157.4 324.14 140.81 321.56 141.22 321.56 141.22"/><polygon class="cls-5" points="308.65 143.27 293.18 145.72 294.56 159.04 310.21 158.22 308.65 143.27 308.65 143.27"/><polygon class="cls-4" points="40.33 145.72 9.37 140.81 7.64 157.4 38.95 159.04 40.33 145.72 40.33 145.72"/><polygon class="cls-3" points="285.43 146.94 216.01 157.94 216.53 163.13 286.73 159.45 285.43 146.94 285.43 146.94"/><polygon class="cls-5" points="60.97 148.99 48.07 146.94 46.77 159.45 59.82 160.14 60.97 148.99 60.97 148.99"/><polygon class="cls-3" points="117.73 157.98 68.71 150.21 67.64 160.55 117.2 163.15 117.73 157.98 117.73 157.98"/><polygon class="cls-4" points="111.98 168.61 104.15 169.02 104.83 175.55 117.73 173.51 117.2 168.34 111.98 168.61 111.98 168.61"/><polygon class="cls-5" points="236.41 176.78 295.76 186.17 297.17 172.58 237.18 169.43 236.41 176.78 236.41 176.78"/><polygon class="cls-5" points="58.39 182.91 97.09 176.77 96.33 169.43 57.21 171.48 58.39 182.91 58.39 182.91"/><polygon class="cls-3" points="303.49 187.4 324.14 190.67 325.86 174.08 304.99 172.99 303.49 187.4 303.49 187.4"/><polygon class="cls-3" points="11.95 190.26 50.65 184.13 49.38 171.89 7.64 174.08 9.37 190.67 11.95 190.26 11.95 190.26"/><polygon class="cls-4" points="120.19 189.46 82.94 208.44 87.87 216.96 125.13 192.77 122.52 188.28 120.19 189.46 120.19 189.46"/><polygon class="cls-3" points="255.08 189.41 214.82 178.63 213.18 183.56 257 200.38 260.12 190.76 255.08 189.41 255.08 189.41"/><polygon class="cls-4" points="222.62 194.21 211.02 188.3 208.38 192.78 219.34 199.89 222.62 194.21 222.62 194.21"/><polygon class="cls-5" points="264.32 203.19 286.28 211.62 290.41 198.88 267.69 192.79 264.32 203.19 264.32 203.19"/><polygon class="cls-3" points="47.23 211.62 120.41 183.53 118.81 178.59 43.1 198.88 47.23 211.62 47.23 211.62"/><polygon class="cls-4" points="132.23 208.38 124 218.52 129.76 222.71 139.72 207.37 135.52 204.31 132.23 208.38 132.23 208.38"/><polygon class="cls-4" points="293.59 214.43 315.54 222.86 320.69 206.99 297.98 200.9 293.59 214.43 293.59 214.43"/><polygon class="cls-5" points="32.59 217.24 39.92 214.43 35.53 200.9 27.96 202.93 32.59 217.24 32.59 217.24"/><polygon class="cls-4" points="20.4 221.92 25.28 220.05 20.39 204.96 12.82 206.99 17.96 222.86 20.4 221.92 20.4 221.92"/><polygon class="cls-4" points="156.43 214.29 153.9 213.69 142.41 256.59 152.04 258.62 158.99 214.76 156.43 214.29 156.43 214.29"/><polygon class="cls-3" points="164.15 215.29 163.61 225.72 169.89 225.72 169.35 215.29 164.15 215.29 164.15 215.29"/><polygon class="cls-5" points="266.86 216.75 229.61 197.77 225.91 204.16 260.97 226.93 266.86 216.75 266.86 216.75"/><polygon class="cls-3" points="276.17 221.49 273.84 220.3 267.54 231.19 300.41 252.54 308.76 238.1 276.17 221.49 276.17 221.49"/><polygon class="cls-5" points="68.15 229.77 81.3 221.23 75.96 212 57.34 221.49 63.77 232.62 68.15 229.77 68.15 229.77"/><polygon class="cls-3" points="134.73 228.6 112.19 272.83 123.68 277.94 148.96 212.08 144.22 209.97 134.73 228.6 134.73 228.6"/><polygon class="cls-4" points="178.19 237.98 180.65 253.46 189.74 251.54 179.6 213.69 174.51 214.76 178.19 237.98 178.19 237.98"/><polygon class="cls-3" points="92.86 239.63 94.71 237.78 94.71 237.78 96.56 235.94 96.56 235.93 98.41 234.09 98.41 234.08 105.8 226.7 105.8 226.7 107.64 224.85 107.64 224.85 109.49 223.01 109.49 223 116.88 215.62 116.88 215.61 118.73 213.77 118.73 213.77 127.96 204.54 127.96 204.53 131.65 200.84 128.18 196.98 81.48 234.79 89.17 243.32 92.86 239.63 92.86 239.63"/><polygon class="cls-5" points="71.33 243.01 65.24 247.94 74.39 258.1 83.62 248.87 75.39 239.72 71.33 243.01 71.33 243.01"/><polygon class="cls-5" points="262.17 243.01 239.84 224.93 233.25 232.24 253.57 252.56 262.17 243.01 262.17 243.01"/><polygon class="cls-3" points="35.29 251.12 57.2 236.89 50.35 225.05 24.75 238.1 33.09 252.54 35.29 251.12 35.29 251.12"/><polygon class="cls-4" points="235.8 251.01 197.99 204.31 195.93 205.9 195.83 205.77 193.69 207.22 226.52 257.77 235.8 251.01 235.8 251.01"/><polygon class="cls-4" points="270.29 249.59 268.27 247.94 259.12 258.1 279.44 278.42 290.59 266.03 270.29 249.59 270.29 249.59"/><polygon class="cls-3" points="201.4 255.99 210.64 251.88 189.29 209.97 184.54 212.08 201.4 255.99 201.4 255.99"/><polygon class="cls-5" points="171.4 254.42 170.31 233.55 163.2 233.55 160.32 288.33 173.18 288.33 171.4 254.42 171.4 254.42"/><polygon class="cls-5" points="221.32 272.83 214.2 258.86 204.21 263.31 209.82 277.94 221.32 272.83 221.32 272.83"/><polygon class="cls-4" points="55.92 276.57 59.61 272.88 59.61 272.88 61.46 271.04 61.46 271.03 63.31 269.19 63.31 269.18 68.85 263.65 68.85 263.64 59.15 252.88 42.91 266.03 54.07 278.42 55.92 276.57 55.92 276.57"/><polygon class="cls-5" points="255.53 275.37 240.73 257.1 230.79 264.34 245.01 286.25 257.17 277.4 255.53 275.37 255.53 275.37"/><polygon class="cls-5" points="89.92 284.06 125.49 229.28 119.08 224.62 76.33 277.4 88.49 286.25 89.92 284.06 89.92 284.06"/><polygon class="cls-5" points="119.93 287.7 120.87 285.26 108.63 279.81 105.07 286.8 118.06 292.58 119.93 287.7 119.93 287.7"/><polygon class="cls-3" points="249.28 292.82 253.55 299.39 267.04 289.58 262.11 283.5 249.28 292.82 249.28 292.82"/><polygon class="cls-5" points="200.56 291.92 191.77 259.11 181.88 261.2 187.19 294.74 200.56 291.92 200.56 291.92"/><polygon class="cls-5" points="139.05 296.06 145.91 297.32 150.4 268.94 139.7 266.68 132.27 294.44 139.05 296.06 139.05 296.06"/><polygon class="cls-3" points="81.38 297.21 84.22 292.82 71.39 283.5 66.47 289.58 79.95 299.4 81.38 297.21 81.38 297.21"/><polygon class="cls-4" points="233.18 296.11 224.88 279.81 212.63 285.26 223.87 314.53 239.11 307.75 233.18 296.11 233.18 296.11"/><polygon class="cls-4" points="110.57 312.09 115.25 299.89 101.52 293.78 94.4 307.75 109.64 314.53 110.57 312.09 110.57 312.09"/><polygon class="cls-3" points="205.29 309.58 202.59 299.49 188.41 302.49 191.68 323.13 208 319.68 205.29 309.58 205.29 309.58"/><polygon class="cls-3" points="142.23 320.54 144.69 305.06 130.24 302.01 125.51 319.68 141.82 323.13 142.23 320.54 142.23 320.54"/><polygon class="cls-4" points="174.82 319.63 173.59 296.15 159.92 296.15 158.41 324.85 175.09 324.84 174.82 319.63 174.82 319.63"/></svg>