<svg xmlns="http://www.w3.org/2000/svg" viewBox="0 0 897 346.5"><style type="text/css">  
	.st0{fill:#FFFFFF;}
	.st1{fill:#54D8D6;}
	.st2{fill:#53D9D7;}
	.st3{fill:#15A9A7;}
</style><path class="st0" d="M365.7 130.9h10.1V66.2h-10.1v-6.4h28v6.4h-10.1v64.7h10.1v6.4h-28V130.9z"/><path class="st0" d="M399.6 131.1h9.4V90.5c0-1.7-0.9-2.4-2.4-2.4h-7.5v-6.2h10.6c4.6 0 6.7 2 6.7 6.2v3.2c0 2.2-0.4 4-0.4 4h0.2c1.5-4.2 8.7-14.7 22.6-14.7 13.7 0 18.4 7.8 18.4 21.5v29.1h9.4v6.2h-16.9V104c0-8.7-1.4-16.4-12.1-16.4 -12.2 0-21 10.8-21 23v20.5h9.4v6.2h-26.2V131.1z"/><path class="st0" d="M469.9 120.1h6.8v4c0 5.6 8 8 14.4 8 7.1 0 13-3.1 13-8.7 0-6.4-7.1-8.6-15-11.6 -8.4-3.1-17.2-6.8-17.2-16.5 0-10.1 9.9-14.8 19.2-14.8 7.5 0 18.4 3.2 18.4 10.8v6.4h-6.8v-4.1c0-4.1-5.5-6.6-11.3-6.6 -6.2 0-11.7 2.6-11.7 8 0 6.1 6.7 8.6 14 11.2 8.6 3.1 18.1 6.7 18.1 16.6 0 9.6-8.6 15.6-20.9 15.6 -10.2 0-20.9-4.6-20.9-13.1V120.1z"/><path class="st0" d="M523.9 88.1H514v-6.2h17.4v33.4c0 8.7 1.3 16.4 12.1 16.4 12.4 0 20.4-11.5 20.4-23.5V88.1h-9.9v-6.2h17.4v46.9c0 1.7 0.9 2.4 2.4 2.4h6.3v6.1h-9.4c-4.6 0-6.6-2-6.6-6.2v-2.8c0-2.2 0.1-4 0.1-4H564c-1.4 4.2-8.3 14.2-21.9 14.2 -12.8 0-18.2-7.1-18.2-21.5V88.1z"/><path class="st0" d="M584.9 131.1h8.6V90.5c0-1.7-0.9-2.4-2.4-2.4h-7.5v-6.2H594c4.6 0 6.7 1.9 6.7 6.3v3.7c0 2.3-0.2 4.2-0.2 4.2h0.2c2.8-8.4 8.9-14.8 17.5-14.8 1.5 0 3.1 0.3 3.1 0.3v7.4c0 0-1.4-0.2-2.9-0.2 -12.4 0-17.5 14-17.5 25v17.3h8.6v6.2h-24.7V131.1z"/><path class="st0" d="M625.3 131.1h9.4V88.1h-9.9v-6.2h17.4v49.2h9.4v6.2h-26.2V131.1zM634.2 59.9h8.5v9.4h-8.5V59.9z"/><path class="st0" d="M655.8 131.1h9.4V90.5c0-1.7-0.9-2.4-2.4-2.4h-7.5v-6.2h10.6c4.6 0 6.7 2 6.7 6.2v3.2c0 2.2-0.4 4-0.4 4h0.2c1.5-4.2 8.7-14.7 22.6-14.7 13.7 0 18.4 7.8 18.4 21.5v29.1h9.4v6.2h-16.9V104c0-8.7-1.4-16.4-12.1-16.4 -12.2 0-21 10.8-21 23v20.5h9.4v6.2h-26.2V131.1z"/><path class="st0" d="M746.5 153.8c10.8 0 19.4-5.1 19.4-17.5v-5.5c0-2.1 0.3-4 0.3-4H766c-3.3 6.2-9 10.1-17.6 10.1 -14.9 0-24.7-11.8-24.7-28.4 0-16.6 9.1-28 24-28 7.8 0 15.6 3 18.6 9.8h0.2c0 0-0.2-0.8-0.2-2.4 0-4.1 1.7-6.1 6.4-6.1h9.9v6.2h-6.8c-1.5 0-2.4 0.8-2.4 2.3V136c0 17.6-13 24.5-26.7 24.5 -6.3 0-12.7-1.7-18.1-4.4l2.9-6.1C731.5 150 738.3 153.8 746.5 153.8zM766 108.6c0-16.2-7.7-21.3-17.5-21.3 -10.8 0-17.1 7.9-17.1 21.2 0 13.3 7.2 21.8 18.1 21.8C758.3 130.3 766 124.9 766 108.6z"/><path class="st1" d="M365.7 224.7h10.1V160h-10.1v-6.4h28v6.4h-10.1v29h44.8v-29h-10.1v-6.4h28v6.4h-10.1v64.7h10.1v6.4h-28v-6.4h10.1v-29.1h-44.8v29.1h10.1v6.4h-28V224.7z"/><path class="st1" d="M477 174.3c15.3 0 23.2 11.8 23.2 25.6 0 1.3-0.3 3.5-0.3 3.5h-42.5c0.3 14.2 10 22.3 21.5 22.3 10.1 0 16.9-6.6 16.9-6.6l3.4 5.6c0 0-7.9 7.7-20.5 7.7 -16.5 0-29-11.9-29-29C449.7 185.2 462 174.3 477 174.3zM492.4 197.9c-0.4-11.7-7.5-17.3-15.6-17.3 -9.3 0-17.3 6.1-19.1 17.3H492.4z"/><path class="st1" d="M537 197.1h3.6v-2.3c0-10.4-5.6-14-13.3-14 -9.4 0-16.1 5.4-16.1 5.4l-3.5-5.6c0 0 7.5-6.3 20.1-6.3 13.4 0 20.4 7.2 20.4 20.8v27.3c0 1.7 0.9 2.4 2.4 2.4h6.1v6.2h-9c-4.7 0-6.6-2.1-6.6-6.1v-1c0-2.6 0.3-4.3 0.3-4.3h-0.2c0 0-4.7 12.7-18.9 12.7 -9 0-18.5-5.2-18.5-16.5C503.6 197.9 527.7 197.1 537 197.1zM523.2 226.2c11.1 0 17.4-11.1 17.4-20.8v-2.6h-3.2c-4.5 0-26.1-0.4-26.1 12.3C511.3 220.8 515.5 226.2 523.2 226.2z"/><path class="st1" d="M562.5 159.8h-9.8v-6.2H570v63c0 4.5 1.2 8.3 6.3 8.3 2 0 3.1-0.2 3.1-0.2v6.4c0 0-2.1 0.3-4.3 0.3 -7.3 0-12.6-3.6-12.6-14.2V159.8z"/><path class="st1" d="M586.9 181.8H577v-6.2h10v-15.3h7.4v15.3h14v6.2h-14v28.4c0 13 8.3 14.8 12.6 14.8 1.5 0 2.5-0.2 2.5-0.2v6.5c0 0-1.3 0.2-3.2 0.2 -6.4 0-19.4-2.1-19.4-20.6V181.8z"/><path class="st1" d="M612.8 224.9h9.4v-65.1h-9.9v-6.2h17.4V184c0 2.5-0.4 4.5-0.4 4.5h0.2c2.2-5.2 9.7-14.2 22.3-14.2 13.7 0 18.5 7.8 18.5 21.5v29.1h9.5v6.2h-17v-33.3c0-8.7-1.3-16.4-12-16.4 -11.9 0-21 9.9-21 23.1v20.4h9.4v6.2h-26.2V224.9z"/><path class="st1" d="M709.1 174.3c6.9 0 20.5 2.9 20.5 12v6.1h-6.9v-4.1c0-5-8.4-7.3-13.4-7.3 -12.1 0-21.4 8.8-21.4 22.3 0 13.8 9.8 22.4 21.7 22.4 10.8 0 17.2-6.8 18.2-7.6l3.2 5.7c-1.2 1.1-8.8 8.6-21.6 8.6 -15.9 0-29.2-11.2-29.2-28.9C680.1 186.2 693.1 174.3 709.1 174.3z"/><path class="st1" d="M768.3 197.1h3.6v-2.3c0-10.4-5.6-14-13.3-14 -9.4 0-16.1 5.4-16.1 5.4l-3.5-5.6c0 0 7.5-6.3 20.1-6.3 13.4 0 20.4 7.2 20.4 20.8v27.3c0 1.7 0.9 2.4 2.4 2.4h6.1v6.2h-9c-4.7 0-6.6-2.1-6.6-6.1v-1c0-2.6 0.3-4.3 0.3-4.3h-0.2c0 0-4.7 12.7-18.9 12.7 -9 0-18.5-5.2-18.5-16.5C735 197.9 759 197.1 768.3 197.1zM754.6 226.2c11.1 0 17.4-11.1 17.4-20.8v-2.6h-3.2c-4.5 0-26.1-0.4-26.1 12.3C742.7 220.8 746.9 226.2 754.6 226.2z"/><path class="st1" d="M792.4 224.9h8.6v-40.7c0-1.7-0.9-2.4-2.4-2.4h-7.5v-6.2h10.5c4.6 0 6.7 1.9 6.7 6.3v3.7c0 2.3-0.2 4.2-0.2 4.2h0.2c2.8-8.4 8.9-14.8 17.5-14.8 1.5 0 3.1 0.3 3.1 0.3v7.4c0 0-1.4-0.2-2.9-0.2 -12.4 0-17.5 14-17.5 25v17.3h8.6v6.2h-24.7V224.9z"/><path class="st1" d="M856.4 174.3c15.3 0 23.2 11.8 23.2 25.6 0 1.3-0.3 3.5-0.3 3.5h-42.5c0.3 14.2 10 22.3 21.5 22.3 10.1 0 16.9-6.6 16.9-6.6l3.4 5.6c0 0-7.9 7.7-20.5 7.7 -16.5 0-29-11.9-29-29C829.1 185.2 841.4 174.3 856.4 174.3zM871.8 197.9c-0.4-11.7-7.5-17.3-15.6-17.3 -9.3 0-17.3 6.1-19.1 17.3H871.8z"/><path class="st0" d="M364.3 248.9h5.9v5.9h-5.9V248.9zM364.3 260.9h5.8v30.4h-5.8V260.9z"/><path class="st0" d="M376.5 260.9h5.6v4c0 1.2-0.1 2.2-0.1 2.2h0.1c1.2-2.6 4.8-7 11.4-7 7.1 0 10.4 3.9 10.4 11.6v19.4h-5.8v-18.1c0-4.3-0.9-7.6-5.8-7.6 -4.6 0-8.3 3.1-9.6 7.4 -0.4 1.2-0.5 2.6-0.5 4.1v14.2h-5.8V260.9z"/><path class="st0" d="M440.9 272.3h1.3v-0.5c0-5-2.8-6.7-6.7-6.7 -4.7 0-8.5 2.9-8.5 2.9l-2.4-4.3c0 0 4.4-3.6 11.3-3.6 7.7 0 12 4.2 12 11.9v19.2h-5.4v-2.9c0-1.4 0.1-2.4 0.1-2.4h-0.1c0 0-2.5 6-9.7 6 -5.2 0-10.3-3.2-10.3-9.2C422.6 272.7 435.8 272.3 440.9 272.3zM434.2 287.3c4.9 0 8.1-5.2 8.1-9.7v-1h-1.5c-4.4 0-12.3 0.3-12.3 5.8C428.5 284.9 430.4 287.3 434.2 287.3z"/><path class="st0" d="M480.9 260.2c7 0 9.4 4.8 9.4 4.8h0.1c0 0-0.1-0.9-0.1-2v-14h5.8v42.4h-5.5v-2.9c0-1.2 0.1-2 0.1-2h-0.1c0 0-2.5 5.6-10 5.6 -8.2 0-13.4-6.5-13.4-15.9C467.2 266.4 472.9 260.2 480.9 260.2zM481.7 287c4.5 0 8.8-3.2 8.8-10.9 0-5.4-2.8-10.8-8.6-10.8 -4.8 0-8.8 4-8.8 10.9C473.1 282.7 476.6 287 481.7 287z"/><path class="st0" d="M502.4 248.9h5.9v5.9h-5.9V248.9zM502.5 260.9h5.8v30.4h-5.8V260.9z"/><path class="st0" d="M525.8 298.8c5.3 0 9.6-2.3 9.6-8.5v-2.2c0-1 0.1-1.9 0.1-1.9h-0.1c-1.8 3-4.6 4.7-9 4.7 -8.5 0-13.6-6.8-13.6-15.5 0-8.7 4.9-15.2 13.3-15.2 7.3 0 9.5 4.5 9.5 4.5h0.1c0 0-0.1-0.4-0.1-1v-2.8h5.6V290c0 10-7.6 13.9-15.3 13.9 -3.7 0-7.4-1-10.4-2.5l1.9-4.6C517.5 296.8 521.3 298.8 525.8 298.8zM535.6 275.4c0-7.9-3.8-10.2-8.6-10.2 -5.3 0-8.3 3.8-8.3 10 0 6.3 3.4 10.6 8.8 10.6C531.7 285.9 535.6 283.4 535.6 275.4z"/><path class="st0" d="M547.6 248.9h5.9v5.9h-5.9V248.9zM547.6 260.9h5.8v30.4h-5.8V260.9z"/><path class="st0" d="M560.9 266h-4v-4.7h4.1v-8.8h5.6v8.8h7.3v4.7h-7.3v13.5c0 6.1 4.3 6.8 6.5 6.8 0.8 0 1.4-0.1 1.4-0.1v5.2c0 0-0.8 0.1-2 0.1 -3.9 0-11.6-1.2-11.6-11.3V266z"/><path class="st0" d="M594.7 272.3h1.3v-0.5c0-5-2.8-6.7-6.7-6.7 -4.7 0-8.5 2.9-8.5 2.9l-2.4-4.3c0 0 4.4-3.6 11.3-3.6 7.7 0 12 4.2 12 11.9v19.2h-5.4v-2.9c0-1.4 0.1-2.4 0.1-2.4h-0.1c0 0-2.5 6-9.7 6 -5.2 0-10.3-3.2-10.3-9.2C576.4 272.7 589.6 272.3 594.7 272.3zM588 287.3c4.9 0 8.1-5.2 8.1-9.7v-1h-1.5c-4.4 0-12.3 0.3-12.3 5.8C582.3 284.9 584.2 287.3 588 287.3z"/><path class="st0" d="M607.7 248.9h5.8V282c0 3.7 1.4 4.3 3.2 4.3 0.5 0 1-0.1 1-0.1v5.2c0 0-0.9 0.1-1.9 0.1 -3.3 0-8.2-0.9-8.2-8.5V248.9z"/><path class="st0" d="M632.8 260.9h6.2l6.3 21.3c0.5 1.6 0.7 3.2 0.8 3.2h0.1c0 0 0.3-1.7 0.8-3.2l6.6-21.2h5.3l6.5 21.2c0.5 1.6 0.8 3.2 0.8 3.2h0.1c0 0 0.2-1.7 0.7-3.2l6.4-21.3h6.1l-9.8 30.4h-6.4l-6.3-19.5c-0.5-1.6-0.8-3.3-0.8-3.3h-0.1c0 0-0.4 1.7-0.8 3.3l-6.2 19.5h-6.5L632.8 260.9z"/><path class="st0" d="M696 260.2c9.1 0 16.4 6.7 16.4 15.8 0 9.2-7.3 16-16.4 16s-16.4-6.7-16.4-16C679.7 266.9 687 260.2 696 260.2zM696 287c5.8 0 10.4-4.6 10.4-10.9 0-6.3-4.7-10.8-10.4-10.8 -5.7 0-10.4 4.5-10.4 10.8C685.6 282.4 690.3 287 696 287z"/><path class="st0" d="M716.7 260.9h5.6v5.3c0 1.3-0.1 2.3-0.1 2.3h0.1c1.4-4.4 4.9-7.9 9.6-7.9 0.8 0 1.5 0.1 1.5 0.1v5.8c0 0-0.8-0.2-1.7-0.2 -3.7 0-7.1 2.6-8.5 7.1 -0.5 1.7-0.7 3.6-0.7 5.5v12.4h-5.8V260.9z"/><path class="st0" d="M736.1 248.9h5.8V282c0 3.7 1.4 4.3 3.2 4.3 0.5 0 1-0.1 1-0.1v5.2c0 0-0.9 0.1-1.9 0.1 -3.3 0-8.2-0.9-8.2-8.5V248.9z"/><path class="st0" d="M761.2 260.2c7 0 9.4 4.8 9.4 4.8h0.1c0 0-0.1-0.9-0.1-2v-14h5.8v42.4h-5.5v-2.9c0-1.2 0.1-2 0.1-2h-0.1c0 0-2.5 5.6-10 5.6 -8.2 0-13.4-6.5-13.4-15.9C747.5 266.4 753.2 260.2 761.2 260.2zM762 287c4.5 0 8.8-3.2 8.8-10.9 0-5.4-2.8-10.8-8.6-10.8 -4.8 0-8.8 4-8.8 10.9C753.4 282.7 756.9 287 762 287z"/><polygon class="st2" points="214 210.3 238.1 234.4 244.1 227.7 215.6 204.6 212.1 208.5 214 210.3 "/><polygon class="st2" points="189.9 125 196.6 99.8 188.8 98.2 184.7 123.9 189.9 125 "/><polygon class="st2" points="168.6 13.6 169 21.5 184.9 21.5 185.3 13.6 168.6 13.6 "/><polygon class="st2" points="233.3 26.4 230.5 33.7 244.8 40.1 249.5 30.8 234.2 24 233.3 26.4 "/><polygon class="st2" points="110.3 42.4 116.2 54.1 129 48.4 119.6 24 104.3 30.8 110.3 42.4 "/><polygon class="st3" points="235.2 58.8 241.2 47.1 227.7 41.1 221.1 58.2 232.9 63.5 235.2 58.8 "/><polygon class="st3" points="182.8 60.7 184.5 29.3 169.4 29.3 171 60.7 182.8 60.7 "/><polygon class="st3" points="89.5 65.3 96.1 73.4 107 65.5 99.8 54.5 87.8 63.2 89.5 65.3 "/><polygon class="st2" points="288.1 62 284.4 65.7 295.1 77.6 301.2 72.6 290 60.2 288.1 62 "/><polygon class="st3" points="134.6 63.1 131.8 55.8 119.8 61.1 123.4 68.1 134.6 63.1 "/><polygon class="st3" points="159.7 64.5 154.8 33.5 140.3 36.5 158.6 104.9 165.8 103.4 159.7 64.5 "/><polygon class="st3" points="245.4 67.7 232.6 87.5 241.3 93.8 261 69.4 249.7 61.1 245.4 67.7 "/><polygon class="st3" points="278.9 71.3 260.3 89.8 268.6 99 289 82.5 278.9 71.3 "/><polygon class="st2" points="101 79.5 145.6 134.5 149.8 131.5 111.2 72.1 101 79.5 "/><polygon class="st2" points="75.6 82 80.5 76.9 80.5 76.9 78.7 75 78.7 75 73.1 69.5 73.1 69.5 71.3 67.6 71.3 67.6 69.4 65.7 69.4 65.7 63.9 60.2 52.7 72.6 71 87.5 75.6 82 "/><polygon class="st3" points="200 87.2 201.3 82.1 191.7 80.1 190 90.4 198.6 92.2 200 87.2 "/><polygon class="st3" points="77.1 92.4 91.4 104 99.1 95.4 86.1 82.4 77.1 92.4 "/><polygon class="st2" points="226.9 96.3 204.2 131.3 208.4 134.3 236.3 99.9 228.3 94.1 226.9 96.3 "/><polygon class="st2" points="323.8 116.9 306.6 123.5 311.1 137.3 331.4 131.9 326.2 115.9 323.8 116.9 "/><polygon class="st3" points="277.4 122.1 284.4 118.5 278 107.6 267.1 114.7 272.7 124.4 277.4 122.1 "/><polygon class="st2" points="35 118.8 27.6 115.9 22.5 131.9 30.1 133.9 35 118.8 "/><polygon class="st2" points="168.3 118.9 167.1 111.1 160.6 112.5 164 125.1 169.1 124 168.3 118.9 "/><polygon class="st3" points="88.2 128 97.5 132.8 102.2 124.7 93.4 119 88.2 128 "/><polygon class="st3" points="54.6 126.3 42.3 121.6 37.7 135.9 50.3 139.3 54.6 126.3 "/><polygon class="st3" points="299.3 126.3 255.2 143.2 257.9 151.5 303.5 139.3 299.3 126.3 "/><polygon class="st2" points="106.8 137.5 132.5 150.6 135.2 146.1 108.8 129 104.5 136.3 106.8 137.5 "/><polygon class="st2" points="233 144.7 265.7 128 260.5 119 218.9 146 221.5 150.5 233 144.7 "/><polygon class="st3" points="319.3 150.7 303.8 153.2 305.2 166.5 320.9 165.7 319.3 150.7 "/><polygon class="st2" points="296 154.4 226.3 165.4 226.9 170.6 297.3 166.9 296 154.4 "/><polygon class="st3" points="70.8 156.4 57.8 154.4 56.5 166.9 69.6 167.6 70.8 156.4 "/><polygon class="st2" points="127.7 165.5 78.6 157.7 77.5 168 127.2 170.6 127.7 165.5 "/><polygon class="st3" points="246.8 184.3 306.4 193.7 307.8 180.1 247.6 176.9 246.8 184.3 "/><polygon class="st3" points="68.2 190.5 107 184.3 106.3 176.9 67 179 68.2 190.5 "/><polygon class="st2" points="314.1 195 334.8 198.3 336.6 181.6 315.6 180.5 314.1 195 "/><polygon class="st2" points="21.6 197.8 60.4 191.7 59.2 179.4 17.3 181.6 19 198.3 21.6 197.8 "/><polygon class="st2" points="265.5 197 225.2 186.2 223.5 191.1 267.5 208 270.6 198.3 265.5 197 "/><polygon class="st3" points="274.8 210.8 296.8 219.3 301 206.5 278.2 200.4 274.8 210.8 "/><polygon class="st2" points="57 219.3 130.4 191.1 128.8 186.1 52.9 206.5 57 219.3 "/><polygon class="st3" points="42.3 224.9 49.7 222.1 45.3 208.5 37.7 210.6 42.3 224.9 "/><polygon class="st2" points="174.3 223 173.8 233.4 180.1 233.4 179.5 223 174.3 223 "/><polygon class="st3" points="277.4 224.4 240 205.4 236.3 211.8 271.5 234.6 277.4 224.4 "/><polygon class="st2" points="286.7 229.2 284.4 228 278 238.9 311 260.3 319.4 245.8 286.7 229.2 "/><polygon class="st3" points="78 237.5 91.2 228.9 85.8 219.7 67.1 229.2 73.6 240.3 78 237.5 "/><polygon class="st2" points="144.8 236.3 122.2 280.7 133.7 285.8 159.1 219.7 154.3 217.6 144.8 236.3 "/><polygon class="st2" points="102.8 247.4 104.6 245.5 104.6 245.5 106.5 243.7 106.5 243.7 108.4 241.8 108.4 241.8 115.8 234.4 115.8 234.4 117.6 232.6 117.6 232.5 119.5 230.7 119.5 230.7 126.9 223.3 126.9 223.3 128.7 221.4 128.7 221.4 138 212.2 138 212.2 141.7 208.5 138.2 204.6 91.4 242.5 99.1 251.1 102.8 247.4 "/><polygon class="st3" points="81.2 250.8 75.1 255.7 84.3 265.9 93.5 256.6 85.3 247.5 81.2 250.8 "/><polygon class="st3" points="272.7 250.8 250.3 232.6 243.6 240 264 260.3 272.7 250.8 "/><polygon class="st2" points="45 258.9 67 244.6 60.1 232.7 34.4 245.8 42.8 260.3 45 258.9 "/><polygon class="st0" points="226.3 181.1 239 183.1 239.7 176.5 226.8 175.9 226.3 181.1 "/><polygon class="st0" points="216.4 70.5 194.8 126.6 199.6 128.7 229.3 70.5 218.3 65.6 216.4 70.5 "/><polygon class="st0" points="182.3 71.2 182.4 68.6 171.4 68.6 174.3 123.5 179.5 123.4 182.3 71.2 "/><polygon class="st0" points="260.4 105.6 262.5 104 254.8 95.4 212.3 137.8 215.8 141.7 260.4 105.6 "/><polygon class="st0" points="97.5 108.9 138.2 141.9 141.7 138 138 134.3 138 134.3 128.7 125.1 128.7 125.1 126.9 123.2 126.9 123.2 119.5 115.8 119.5 115.8 117.6 113.9 117.6 113.9 115.8 112.1 115.8 112.1 108.4 104.7 108.4 104.7 106.5 102.8 106.5 102.8 104.6 101 97.5 108.9 "/><polygon class="st0" points="151.6 107.2 137.5 70.5 126.9 75.1 154.3 128.9 159.1 126.7 151.6 107.2 "/><polygon class="st0" points="88.3 149.5 128.8 160.4 130.4 155.4 61.9 129.1 57.9 141.4 88.3 149.5 "/><polygon class="st0" points="240.5 148.8 223.7 155.3 225.3 160.3 250.3 153.6 247.9 146 240.5 148.8 "/><polygon class="st0" points="122 176.1 114.1 176.5 114.8 183.1 127.7 181 127.2 175.8 122 176.1 "/><polygon class="st0" points="130.2 197 92.8 216.1 97.8 224.6 135.2 200.4 132.5 195.9 130.2 197 "/><polygon class="st0" points="233 201.8 221.3 195.9 218.7 200.4 229.7 207.5 233 201.8 "/><polygon class="st0" points="142.3 216 134 226.2 139.8 230.4 149.8 215 145.6 211.9 142.3 216 "/><polygon class="st0" points="166.6 221.9 164 221.3 152.5 264.4 162.2 266.4 169.1 222.4 166.6 221.9 "/><polygon class="st0" points="188.4 245.7 190.9 261.2 200 259.3 189.8 221.3 184.7 222.4 188.4 245.7 "/><polygon class="st0" points="246.2 258.8 208.3 211.9 206.2 213.5 206.1 213.4 203.9 214.9 236.9 265.6 246.2 258.8 "/><polygon class="st2" points="211.7 263.8 221 259.7 199.5 217.6 194.8 219.7 211.7 263.8 "/><polygon class="st3" points="181.6 262.2 180.5 241.3 173.4 241.3 170.5 296.2 183.4 296.2 181.6 262.2 "/><polygon class="st3" points="231.7 280.7 224.5 266.7 214.5 271.1 220.1 285.8 231.7 280.7 "/><polygon class="st3" points="266 283.2 251.1 264.9 241.2 272.2 255.4 294.2 267.6 285.3 266 283.2 "/><polygon class="st3" points="99.8 291.9 135.5 237 129.1 232.3 86.2 285.3 98.4 294.2 99.8 291.9 "/><polygon class="st3" points="129.9 295.6 130.9 293.2 118.6 287.7 115 294.7 128.1 300.5 129.9 295.6 "/><polygon class="st2" points="259.7 300.7 264 307.3 277.5 297.5 272.6 291.4 259.7 300.7 "/><polygon class="st3" points="210.8 299.8 202 266.9 192.1 269 197.4 302.7 210.8 299.8 "/><polygon class="st3" points="149.1 304 156 305.3 160.5 276.8 149.8 274.5 142.3 302.4 149.1 304 "/><polygon class="st2" points="91.3 305.1 94.1 300.7 81.2 291.4 76.3 297.5 89.8 307.3 91.3 305.1 "/><polygon class="st2" points="215.6 317.6 212.9 307.4 198.7 310.4 201.9 331.1 218.3 327.7 215.6 317.6 "/><polygon class="st2" points="152.3 328.6 154.8 313 140.3 310 135.5 327.7 151.9 331.1 152.3 328.6 "/><polygon class="st0" points="201.5 17.9 192.9 72.3 203.4 74.5 218.3 18.8 201.9 15.3 201.5 17.9 "/><polygon class="st0" points="138.3 28.9 153.5 25.7 151.9 15.3 135.5 18.8 138.3 28.9 "/><polygon class="st0" points="262.6 41.3 254 54.5 266 63.2 277.5 49 264 39.1 262.6 41.3 "/><polygon class="st0" points="95.5 47.9 89.8 39.1 76.3 49 82.9 57.1 95.5 47.9 "/><polygon class="st0" points="308.8 87.6 284.6 103.3 291.4 114.9 319.4 100.6 311 86.2 308.8 87.6 "/><polygon class="st0" points="67.1 117.3 81.2 124.4 86.8 114.7 42.8 86.2 34.4 100.6 67.1 117.3 "/><polygon class="st0" points="332.2 148.6 327.1 149.5 328.7 165.3 336.6 164.9 334.8 148.2 332.2 148.6 "/><polygon class="st0" points="50.1 153.2 19 148.2 17.3 164.9 48.7 166.5 50.1 153.2 "/><polygon class="st0" points="304.2 222.1 326.2 230.5 331.4 214.6 308.6 208.5 304.2 222.1 "/><polygon class="st0" points="30.1 229.6 35 227.7 30.1 212.6 22.5 214.6 27.6 230.5 30.1 229.6 "/><polygon class="st0" points="280.8 257.4 278.8 255.7 269.6 265.9 290 286.3 301.2 273.9 280.8 257.4 "/><polygon class="st0" points="65.7 284.4 69.4 280.7 69.4 280.7 71.3 278.9 71.3 278.9 73.1 277 73.1 277 78.7 271.5 78.7 271.5 69 260.7 52.7 273.9 63.9 286.3 65.7 284.4 "/><polygon class="st0" points="243.6 304 235.2 287.7 223 293.2 234.2 322.5 249.5 315.7 243.6 304 "/><polygon class="st0" points="120.6 320.1 125.3 307.8 111.5 301.7 104.3 315.7 119.6 322.5 120.6 320.1 "/><polygon class="st0" points="185 327.6 183.8 304.1 170.1 304.1 168.6 332.9 185.3 332.9 185 327.6 "/></svg>