<svg id="Layer_1" data-name="Layer 1" xmlns="http://www.w3.org/2000/svg" viewBox="0 0 1147.56 173.6"><defs><style>.cls-1{fill:#003233;}.cls-2{fill:#13c8ca;}.cls-3{fill:#008484;}</style></defs><title>Ihd-logo-alt-svg</title><path class="cls-1" d="M198.88,117.85H209V53.18H198.88V46.8h28v6.39H216.72v64.67h10.14v6.39h-28v-6.39Z"/><path class="cls-1" d="M232.75,118.07h9.36V77.42A2.16,2.16,0,0,0,239.69,75H232.2V68.83h10.58c4.63,0,6.72,2,6.72,6.17v3.19a18.17,18.17,0,0,1-.44,4h0.22a24.53,24.53,0,0,1,22.58-14.65c13.66,0,18.4,7.82,18.4,21.48v29.08h9.36v6.17H282.77V91c0-8.7-1.43-16.42-12.12-16.42-12.23,0-21,10.8-21,23v20.49H259v6.17H232.75v-6.17Z"/><path class="cls-1" d="M303.05,107.06h6.83v4c0,5.62,8,8,14.43,8,7.05,0,13-3.08,13-8.7,0-6.39-7.05-8.59-15-11.57C314,95.71,305.15,92,305.15,82.27c0-10.14,9.92-14.76,19.17-14.76,7.49,0,18.4,3.19,18.4,10.8v6.39h-6.83V80.62c0-4.08-5.51-6.61-11.35-6.61-6.17,0-11.68,2.64-11.68,8,0,6.06,6.72,8.59,14,11.24,8.59,3.08,18.07,6.72,18.07,16.64,0,9.58-8.59,15.64-20.93,15.64-10.25,0-20.93-4.63-20.93-13.11v-5.4Z"/><path class="cls-1" d="M357,75h-9.92V68.83h17.41v33.38c0,8.7,1.32,16.42,12.12,16.42,12.45,0,20.38-11.46,20.38-23.47V75H387.1V68.83h17.41v46.93a2.16,2.16,0,0,0,2.42,2.42h6.28v6.06h-9.36c-4.63,0-6.61-2-6.61-6.17v-2.75c0-2.2.11-4,.11-4h-0.22c-1.43,4.19-8.26,14.21-21.92,14.21-12.78,0-18.18-7.05-18.18-21.48V75Z"/><path class="cls-1" d="M418.06,118.07h8.59V77.42A2.16,2.16,0,0,0,424.23,75h-7.49V68.83H427.2c4.63,0,6.72,1.87,6.72,6.28v3.75A40,40,0,0,1,433.7,83h0.22c2.75-8.37,8.92-14.76,17.52-14.76a16.88,16.88,0,0,1,3.08.33V76a21.6,21.6,0,0,0-2.86-.22c-12.45,0-17.52,14-17.52,25v17.3h8.59v6.17H418.06v-6.17Z"/><path class="cls-1" d="M458.46,118.07h9.36V75h-9.92V68.83h17.41v49.25h9.37v6.17H458.46v-6.17Zm8.92-71.28h8.48v9.36h-8.48V46.8Z"/><path class="cls-1" d="M489,118.07h9.36V77.42A2.16,2.16,0,0,0,495.91,75h-7.49V68.83H499c4.63,0,6.72,2,6.72,6.17v3.19a18.15,18.15,0,0,1-.44,4h0.22a24.53,24.53,0,0,1,22.58-14.65c13.66,0,18.4,7.82,18.4,21.48v29.08h9.36v6.17H539V91c0-8.7-1.43-16.42-12.12-16.42-12.23,0-21,10.8-21,23v20.49h9.37v6.17H489v-6.17Z"/><path class="cls-1" d="M579.64,140.77c10.8,0,19.39-5.07,19.39-17.52v-5.51a25.75,25.75,0,0,1,.33-4h-0.22c-3.31,6.17-9,10.14-17.63,10.14-14.87,0-24.68-11.79-24.68-28.42s9.14-28,24-28c7.82,0,15.64,3,18.62,9.81h0.22a9.88,9.88,0,0,1-.22-2.42c0-4.08,1.65-6.06,6.39-6.06h9.92V75h-6.83a2.12,2.12,0,0,0-2.42,2.31v45.61c0,17.63-13,24.46-26.66,24.46A40.49,40.49,0,0,1,561.79,143l2.86-6.06A34,34,0,0,0,579.64,140.77Zm19.5-45.28c0-16.19-7.71-21.26-17.52-21.26-10.8,0-17.08,7.93-17.08,21.15s7.16,21.81,18.07,21.81C591.43,117.19,599.14,111.79,599.14,95.49Z"/><path class="cls-2" d="M623,117.85h10.14V53.18H623V46.8h28v6.39H640.88v29h44.84v-29H675.59V46.8h28v6.39H693.43v64.67h10.14v6.39h-28v-6.39h10.14V88.77H640.88v29.08H651v6.39H623v-6.39Z"/><path class="cls-2" d="M734.29,67.51c15.31,0,23.25,11.79,23.25,25.56a31.25,31.25,0,0,1-.33,3.53H714.68c0.33,14.21,10,22.25,21.48,22.25A26,26,0,0,0,753,112.24l3.42,5.62a31.41,31.41,0,0,1-20.49,7.71c-16.53,0-29-11.9-29-29C707,78.41,719.31,67.51,734.29,67.51Zm15.42,23.58c-0.44-11.68-7.49-17.3-15.64-17.3-9.25,0-17.3,6.06-19.06,17.3h34.7Z"/><path class="cls-2" d="M794.32,90.31H798V88c0-10.36-5.62-14-13.33-14a28,28,0,0,0-16.08,5.4L765,73.79s7.49-6.28,20.05-6.28c13.44,0,20.38,7.16,20.38,20.82v27.32a2.16,2.16,0,0,0,2.42,2.42h6.06v6.17h-9c-4.74,0-6.61-2.09-6.61-6.06v-1a24.18,24.18,0,0,1,.33-4.3H798.4s-4.74,12.67-18.95,12.67c-9,0-18.51-5.18-18.51-16.53C760.94,91.08,785,90.31,794.32,90.31ZM780.55,119.4c11.13,0,17.41-11.13,17.41-20.82V95.93h-3.19c-4.52,0-26.11-.44-26.11,12.34C768.66,114,772.84,119.4,780.55,119.4Z"/><path class="cls-2" d="M819.84,53H810V46.8h17.3v63c0,4.52,1.21,8.26,6.28,8.26a17.42,17.42,0,0,0,3.08-.22v6.39a31.31,31.31,0,0,1-4.3.33c-7.27,0-12.56-3.64-12.56-14.21V53Z"/><path class="cls-2" d="M844.25,75h-9.92V68.83h10V53.52h7.38V68.83h14V75h-14v28.42c0,13,8.26,14.76,12.56,14.76a12.85,12.85,0,0,0,2.53-.22v6.5a21.5,21.5,0,0,1-3.19.22c-6.39,0-19.39-2.09-19.39-20.6V75Z"/><path class="cls-2" d="M870.13,118.07h9.36V53h-9.92V46.8H887V77.2a23.18,23.18,0,0,1-.44,4.52h0.22A24.68,24.68,0,0,1,909,67.51c13.66,0,18.51,7.82,18.51,21.48v29.08H937v6.17H920V91c0-8.7-1.32-16.42-12-16.42-11.9,0-21,9.92-21,23.14v20.38h9.37v6.17H870.13v-6.17Z"/><path class="cls-2" d="M966.41,67.51c6.94,0,20.49,2.86,20.49,12v6.06H980V81.5c0-5-8.37-7.27-13.44-7.27-12.12,0-21.37,8.81-21.37,22.25,0,13.77,9.81,22.36,21.7,22.36,10.8,0,17.19-6.83,18.18-7.6l3.19,5.73a31.41,31.41,0,0,1-21.59,8.59c-15.86,0-29.19-11.24-29.19-28.86C937.43,79.41,950.43,67.51,966.41,67.51Z"/><path class="cls-2" d="M1025.66,90.31h3.63V88c0-10.36-5.62-14-13.33-14a28,28,0,0,0-16.08,5.4l-3.53-5.62s7.49-6.28,20.05-6.28c13.44,0,20.38,7.16,20.38,20.82v27.32a2.16,2.16,0,0,0,2.42,2.42h6.06v6.17h-9c-4.74,0-6.61-2.09-6.61-6.06v-1a24.11,24.11,0,0,1,.33-4.3h-0.22s-4.74,12.67-18.95,12.67c-9,0-18.51-5.18-18.51-16.53C992.27,91.08,1016.29,90.31,1025.66,90.31Zm-13.77,29.08c11.13,0,17.41-11.13,17.41-20.82V95.93h-3.19c-4.52,0-26.11-.44-26.11,12.34C1000,114,1004.17,119.4,1011.88,119.4Z"/><path class="cls-2" d="M1049.7,118.07h8.59V77.42a2.16,2.16,0,0,0-2.42-2.42h-7.49V68.83h10.47c4.63,0,6.72,1.87,6.72,6.28v3.75a39.91,39.91,0,0,1-.22,4.19h0.22c2.75-8.37,8.92-14.76,17.52-14.76a16.89,16.89,0,0,1,3.09.33V76a21.62,21.62,0,0,0-2.87-.22c-12.45,0-17.52,14-17.52,25v17.3h8.59v6.17H1049.7v-6.17Z"/><path class="cls-2" d="M1113.73,67.51c15.31,0,23.25,11.79,23.25,25.56a31.21,31.21,0,0,1-.33,3.53h-42.52c0.33,14.21,10,22.25,21.48,22.25a26,26,0,0,0,16.86-6.61l3.42,5.62a31.41,31.41,0,0,1-20.49,7.71c-16.53,0-29-11.9-29-29C1086.41,78.41,1098.75,67.51,1113.73,67.51Zm15.42,23.58c-0.44-11.68-7.49-17.3-15.64-17.3-9.25,0-17.3,6.06-19.06,17.3h34.7Z"/><polygon class="cls-2" points="106.98 104.97 118.79 116.78 121.76 113.48 107.78 102.16 106.08 104.06 106.98 104.97 106.98 104.97"/><polygon class="cls-2" points="95.16 63.14 98.46 50.81 94.64 50.01 92.64 62.62 95.16 63.14 95.16 63.14"/><polygon class="cls-1" points="113 90.63 119.27 91.62 119.6 88.41 113.28 88.08 113 90.63 113 90.63"/><polygon class="cls-2" points="84.72 8.56 84.92 12.4 92.72 12.4 92.92 8.56 84.72 8.56 84.72 8.56"/><polygon class="cls-1" points="100.88 10.68 96.65 37.32 101.78 38.4 109.1 11.1 101.08 9.4 100.88 10.68 100.88 10.68"/><polygon class="cls-2" points="116.45 14.83 115.06 18.43 122.06 21.55 124.4 16.97 116.91 13.63 116.45 14.83 116.45 14.83"/><polygon class="cls-1" points="69.86 16.06 77.36 14.48 76.56 9.4 68.54 11.1 69.86 16.06 69.86 16.06"/><polygon class="cls-2" points="56.15 22.69 59.07 28.42 65.33 25.63 60.73 13.63 53.24 16.97 56.15 22.69 56.15 22.69"/><polygon class="cls-1" points="130.8 22.15 126.6 28.62 132.47 32.89 138.13 25.9 131.5 21.07 130.8 22.15 130.8 22.15"/><polygon class="cls-1" points="48.93 25.38 46.13 21.07 39.5 25.9 42.73 29.89 48.93 25.38 48.93 25.38"/><polygon class="cls-3" points="117.4 30.7 120.32 24.98 113.68 22.03 110.46 30.42 116.23 32.99 117.4 30.7 117.4 30.7"/><polygon class="cls-3" points="91.71 31.64 92.51 16.25 85.12 16.25 85.92 31.64 91.71 31.64 91.71 31.64"/><polygon class="cls-3" points="45.97 33.88 49.2 37.88 54.53 34 51.03 28.62 45.16 32.89 45.97 33.88 45.97 33.88"/><polygon class="cls-2" points="143.32 32.3 141.5 34.11 146.72 39.91 149.72 37.48 144.23 31.39 143.32 32.3 143.32 32.3"/><polygon class="cls-3" points="68.1 32.82 66.72 29.22 60.82 31.85 62.57 35.28 68.1 32.82 68.1 32.82"/><polygon class="cls-3" points="80.38 33.51 77.97 18.29 70.86 19.79 79.84 53.29 83.39 52.54 80.38 33.51 80.38 33.51"/><polygon class="cls-3" points="122.4 35.08 116.11 44.78 120.35 47.86 130.05 35.88 124.5 31.85 122.4 35.08 122.4 35.08"/><polygon class="cls-1" points="108.16 36.42 97.6 63.92 99.95 64.95 114.48 36.43 109.08 34.02 108.16 36.42 108.16 36.42"/><polygon class="cls-1" points="91.44 36.78 91.51 35.5 86.13 35.5 87.54 62.4 90.1 62.38 91.44 36.78 91.44 36.78"/><polygon class="cls-3" points="138.78 36.84 129.69 45.92 133.74 50.42 143.73 42.33 138.78 36.84 138.78 36.84"/><polygon class="cls-2" points="51.63 40.88 73.46 67.83 75.52 66.33 56.63 37.24 51.63 40.88 51.63 40.88"/><polygon class="cls-2" points="39.17 42.1 41.58 39.56 41.58 39.56 40.67 38.66 40.67 38.65 37.95 35.93 37.95 35.93 37.04 35.02 37.04 35.02 36.13 34.11 36.13 34.11 33.41 31.39 27.92 37.48 36.9 44.76 39.17 42.1 39.17 42.1"/><polygon class="cls-3" points="100.12 44.61 100.79 42.12 96.05 41.13 95.25 46.2 99.46 47.09 100.12 44.61 100.12 44.61"/><polygon class="cls-1" points="153.47 44.82 141.61 52.51 144.91 58.22 158.65 51.22 154.54 44.12 153.47 44.82 153.47 44.82"/><polygon class="cls-3" points="39.9 47.19 46.89 52.84 50.67 48.65 44.31 42.29 39.9 47.19 39.9 47.19"/><polygon class="cls-2" points="113.31 49.09 102.17 66.23 104.25 67.73 117.92 50.86 114.01 48.01 113.31 49.09 113.31 49.09"/><polygon class="cls-1" points="129.75 53.65 130.75 52.84 126.97 48.65 106.17 69.45 107.89 71.35 129.75 53.65 129.75 53.65"/><polygon class="cls-1" points="49.88 55.27 69.85 71.44 71.56 69.54 69.74 67.72 69.74 67.72 65.2 63.18 65.2 63.18 64.29 62.27 64.29 62.27 60.66 58.64 60.66 58.64 59.75 57.73 59.75 57.73 58.84 56.82 58.84 56.82 55.21 53.19 55.21 53.19 54.3 52.28 54.3 52.28 53.39 51.37 49.88 55.27 49.88 55.27"/><polygon class="cls-1" points="76.38 54.41 69.48 36.42 64.32 38.72 77.74 65.05 80.07 64.01 76.38 54.41 76.38 54.41"/><polygon class="cls-1" points="35.02 59.38 41.88 62.88 44.64 58.11 23.09 44.12 18.99 51.22 35.02 59.38 35.02 59.38"/><polygon class="cls-2" points="160.78 59.17 152.39 62.4 154.59 69.17 164.51 66.52 161.98 58.71 160.78 59.17 160.78 59.17"/><polygon class="cls-3" points="138.04 61.72 141.48 59.97 138.38 54.61 132.99 58.11 135.75 62.88 138.04 61.72 138.04 61.72"/><polygon class="cls-2" points="19.25 60.09 15.65 58.71 13.12 66.52 16.84 67.51 19.25 60.09 19.25 60.09"/><polygon class="cls-2" points="84.6 60.16 83.99 56.35 80.84 57.02 82.5 63.22 85 62.68 84.6 60.16 84.6 60.16"/><polygon class="cls-3" points="45.32 64.63 49.9 66.97 52.19 63.01 47.87 60.21 45.32 64.63 45.32 64.63"/><polygon class="cls-3" points="28.84 63.77 22.85 61.48 20.57 68.51 26.77 70.17 28.84 63.77 28.84 63.77"/><polygon class="cls-3" points="148.79 63.77 127.2 72.06 128.53 76.16 150.86 70.17 148.79 63.77 148.79 63.77"/><polygon class="cls-2" points="54.47 69.3 67.07 75.72 68.35 73.51 55.42 65.11 53.33 68.72 54.47 69.3 54.47 69.3"/><polygon class="cls-2" points="116.29 72.8 132.32 64.63 129.76 60.21 109.4 73.43 110.69 75.66 116.29 72.8 116.29 72.8"/><polygon class="cls-1" points="45.38 75.16 65.24 80.48 66.03 78.05 32.44 65.16 30.5 71.17 45.38 75.16 45.38 75.16"/><polygon class="cls-1" points="120 74.83 111.73 78 112.52 80.45 124.81 77.15 123.6 73.45 120 74.83 120 74.83"/><polygon class="cls-1" points="164.94 74.74 162.4 75.14 163.21 82.9 167.06 82.7 166.21 74.54 164.94 74.74 164.94 74.74"/><polygon class="cls-3" points="158.6 75.75 150.99 76.95 151.67 83.5 159.36 83.1 158.6 75.75 158.6 75.75"/><polygon class="cls-1" points="26.65 76.95 11.43 74.54 10.58 82.7 25.97 83.5 26.65 76.95 26.65 76.95"/><polygon class="cls-2" points="147.18 77.55 113.04 82.96 113.29 85.52 147.82 83.71 147.18 77.55 147.18 77.55"/><polygon class="cls-3" points="36.8 78.56 30.46 77.55 29.82 83.71 36.23 84.04 36.8 78.56 36.8 78.56"/><polygon class="cls-2" points="64.71 82.98 40.61 79.16 40.08 84.24 64.45 85.52 64.71 82.98 64.71 82.98"/><polygon class="cls-1" points="61.88 88.21 58.03 88.41 58.37 91.62 64.71 90.62 64.45 88.08 61.88 88.21 61.88 88.21"/><polygon class="cls-3" points="123.07 92.22 152.25 96.84 152.95 90.16 123.45 88.61 123.07 92.22 123.07 92.22"/><polygon class="cls-3" points="35.53 95.24 54.56 92.22 54.19 88.61 34.95 89.62 35.53 95.24 35.53 95.24"/><polygon class="cls-2" points="156.06 97.45 166.21 99.06 167.06 90.9 156.79 90.36 156.06 97.45 156.06 97.45"/><polygon class="cls-2" points="12.7 98.86 31.73 95.84 31.1 89.82 10.58 90.9 11.43 99.06 12.7 98.86 12.7 98.86"/><polygon class="cls-1" points="65.92 98.46 47.6 107.8 50.03 111.98 68.35 100.09 67.07 97.88 65.92 98.46 65.92 98.46"/><polygon class="cls-2" points="132.25 98.44 112.45 93.13 111.65 95.56 133.2 103.83 134.73 99.1 132.25 98.44 132.25 98.44"/><polygon class="cls-1" points="116.29 100.8 110.58 97.89 109.29 100.09 114.67 103.59 116.29 100.8 116.29 100.8"/><polygon class="cls-3" points="136.8 105.21 147.59 109.36 149.62 103.09 138.46 100.1 136.8 105.21 136.8 105.21"/><polygon class="cls-2" points="30.04 109.36 66.03 95.55 65.24 93.11 28.01 103.09 30.04 109.36 30.04 109.36"/><polygon class="cls-1" points="71.84 107.76 67.8 112.75 70.63 114.81 75.52 107.27 73.46 105.77 71.84 107.76 71.84 107.76"/><polygon class="cls-1" points="151.19 110.74 161.98 114.88 164.51 107.08 153.34 104.09 151.19 110.74 151.19 110.74"/><polygon class="cls-3" points="22.85 112.12 26.45 110.74 24.29 104.09 20.57 105.09 22.85 112.12 22.85 112.12"/><polygon class="cls-1" points="16.85 114.42 19.25 113.5 16.84 106.08 13.12 107.08 15.65 114.88 16.85 114.42 16.85 114.42"/><polygon class="cls-1" points="83.74 110.67 82.5 110.37 76.85 131.47 81.58 132.47 85 110.9 83.74 110.67 83.74 110.67"/><polygon class="cls-2" points="87.54 111.17 87.27 116.29 90.36 116.29 90.09 111.17 87.54 111.17 87.54 111.17"/><polygon class="cls-3" points="138.04 111.88 119.73 102.55 117.91 105.69 135.15 116.88 138.04 111.88 138.04 111.88"/><polygon class="cls-2" points="142.62 114.21 141.48 113.63 138.38 118.98 154.54 129.48 158.65 122.38 142.62 114.21 142.62 114.21"/><polygon class="cls-3" points="40.33 118.28 46.8 114.08 44.17 109.55 35.02 114.21 38.18 119.68 40.33 118.28 40.33 118.28"/><polygon class="cls-2" points="73.07 117.71 61.99 139.46 67.64 141.97 80.07 109.58 77.74 108.55 73.07 117.71 73.07 117.71"/><polygon class="cls-1" points="94.44 122.32 95.65 129.93 100.12 128.99 95.13 110.37 92.63 110.9 94.44 122.32 94.44 122.32"/><polygon class="cls-2" points="52.48 123.13 53.39 122.22 53.39 122.22 54.3 121.32 54.3 121.31 55.21 120.41 55.21 120.41 58.84 116.78 58.84 116.77 59.75 115.87 59.75 115.86 60.66 114.96 60.66 114.95 64.29 111.33 64.29 111.32 65.2 110.42 65.2 110.41 69.74 105.88 69.74 105.87 71.56 104.06 69.85 102.16 46.89 120.75 50.67 124.95 52.48 123.13 52.48 123.13"/><polygon class="cls-3" points="41.9 124.8 38.9 127.22 43.4 132.22 47.94 127.67 43.89 123.18 41.9 124.8 41.9 124.8"/><polygon class="cls-3" points="135.74 124.8 124.76 115.9 121.52 119.5 131.51 129.49 135.74 124.8 135.74 124.8"/><polygon class="cls-2" points="24.17 128.78 34.95 121.78 31.58 115.96 18.99 122.38 23.09 129.48 24.17 128.78 24.17 128.78"/><polygon class="cls-1" points="122.77 128.73 104.18 105.77 103.16 106.54 103.12 106.48 102.06 107.19 118.21 132.05 122.77 128.73 122.77 128.73"/><polygon class="cls-1" points="139.73 128.03 138.74 127.22 134.24 132.22 144.23 142.21 149.72 136.11 139.73 128.03 139.73 128.03"/><polygon class="cls-2" points="105.85 131.18 110.4 129.16 99.9 108.55 97.56 109.58 105.85 131.18 105.85 131.18"/><polygon class="cls-3" points="91.1 130.4 90.57 120.14 87.07 120.14 85.66 147.08 91.98 147.08 91.1 130.4 91.1 130.4"/><polygon class="cls-3" points="115.65 139.46 112.15 132.59 107.23 134.78 110 141.97 115.65 139.46 115.65 139.46"/><polygon class="cls-1" points="34.31 141.3 36.13 139.48 36.13 139.48 37.04 138.57 37.04 138.57 37.95 137.67 37.95 137.66 40.67 134.94 40.67 134.94 35.9 129.65 27.92 136.11 33.41 142.21 34.31 141.3 34.31 141.3"/><polygon class="cls-3" points="132.47 140.71 125.2 131.72 120.31 135.28 127.3 146.06 133.28 141.71 132.47 140.71 132.47 140.71"/><polygon class="cls-3" points="51.03 144.98 68.53 118.04 65.37 115.75 44.35 141.71 50.33 146.06 51.03 144.98 51.03 144.98"/><polygon class="cls-3" points="65.79 146.77 66.26 145.57 60.24 142.89 58.49 146.33 64.88 149.17 65.79 146.77 65.79 146.77"/><polygon class="cls-2" points="129.4 149.29 131.5 152.52 138.13 147.7 135.71 144.7 129.4 149.29 129.4 149.29"/><polygon class="cls-3" points="105.44 148.84 101.12 132.71 96.25 133.74 98.86 150.23 105.44 148.84 105.44 148.84"/><polygon class="cls-3" points="75.19 150.88 78.57 151.5 80.78 137.55 75.52 136.43 71.86 150.09 75.19 150.88 75.19 150.88"/><polygon class="cls-2" points="46.84 151.44 48.23 149.29 41.92 144.7 39.5 147.7 46.13 152.52 46.84 151.44 46.84 151.44"/><polygon class="cls-1" points="121.48 150.91 117.4 142.89 111.38 145.57 116.91 159.96 124.4 156.63 121.48 150.91 121.48 150.91"/><polygon class="cls-1" points="61.19 158.76 63.49 152.77 56.74 149.76 53.24 156.63 60.73 159.97 61.19 158.76 61.19 158.76"/><polygon class="cls-2" points="107.77 157.53 106.44 152.57 99.47 154.04 101.08 164.19 109.1 162.5 107.77 157.53 107.77 157.53"/><polygon class="cls-2" points="76.76 162.92 77.97 155.31 70.86 153.81 68.54 162.5 76.56 164.19 76.76 162.92 76.76 162.92"/><polygon class="cls-1" points="92.78 162.47 92.18 150.93 85.45 150.93 84.72 165.04 92.92 165.03 92.78 162.47 92.78 162.47"/></svg>